<?xml version="1.0" encoding="UTF-8" standalone="no"?>
<!-- Created with Inkscape (http://www.inkscape.org/) -->

<svg
   width="297mm"
   height="210mm"
   viewBox="0 0 297 210"
   version="1.1"
   id="svg1"
   inkscape:version="1.4.2 (f4327f4, 2025-05-13)"
   sodipodi:docname="drawing-2.svg"
   xmlns:inkscape="http://www.inkscape.org/namespaces/inkscape"
   xmlns:sodipodi="http://sodipodi.sourceforge.net/DTD/sodipodi-0.dtd"
   xmlns="http://www.w3.org/2000/svg"
   xmlns:svg="http://www.w3.org/2000/svg">
  <sodipodi:namedview
     id="namedview1"
     pagecolor="#ffffff"
     bordercolor="#000000"
     borderopacity="0.25"
     inkscape:showpageshadow="2"
     inkscape:pageopacity="0.0"
     inkscape:pagecheckerboard="0"
     inkscape:deskcolor="#d1d1d1"
     inkscape:document-units="mm"
     inkscape:zoom="0.5313938"
     inkscape:cx="654.88156"
     inkscape:cy="716.04148"
     inkscape:window-width="2560"
     inkscape:window-height="1411"
     inkscape:window-x="-9"
     inkscape:window-y="-9"
     inkscape:window-maximized="1"
     inkscape:current-layer="layer1" />
  <defs
     id="defs1">
    <meshgradient
       inkscape:collect="always"
       id="meshgradient18"
       gradientUnits="userSpaceOnUse"
       x="-76.170166"
       y="-81.427307"
       gradientTransform="matrix(0.7437189,0,0,0.7437189,41.171783,39.638822)">
      <meshrow
         id="meshrow18">
        <meshpatch
           id="meshpatch18">
          <stop
             path="c 106.192,0  212.383,0  318.575,0"
             style="stop-color:#ffffff;stop-opacity:1"
             id="stop19" />
          <stop
             path="c 0,91.7149  0,183.43  0,275.145"
             style="stop-color:#800080;stop-opacity:1"
             id="stop20" />
          <stop
             path="c -106.192,0  -212.383,0  -318.575,0"
             style="stop-color:#ffffff;stop-opacity:1"
             id="stop21" />
          <stop
             path="c 0,-91.7149  0,-183.43  0,-275.145"
             style="stop-color:#800080;stop-opacity:1"
             id="stop22" />
        </meshpatch>
      </meshrow>
    </meshgradient>
    <meshgradient
       inkscape:collect="always"
       id="meshgradient22"
       gradientUnits="userSpaceOnUse"
       x="113.19912"
       y="-81.051651"
       gradientTransform="matrix(0.7437189,0,0,0.7437189,41.171783,39.638822)">
      <meshrow
         id="meshrow22">
        <meshpatch
           id="meshpatch22">
          <stop
             path="c 127.577,0  255.155,0  382.732,0"
             style="stop-color:#ffffff;stop-opacity:1"
             id="stop23" />
          <stop
             path="c 0,81.9871  0,163.974  0,245.961"
             style="stop-color:#800080;stop-opacity:1"
             id="stop24" />
          <stop
             path="c -127.577,0  -255.155,0  -382.732,0"
             style="stop-color:#ffffff;stop-opacity:1"
             id="stop25" />
          <stop
             path="c 0,-81.9871  0,-163.974  0,-245.961"
             style="stop-color:#800080;stop-opacity:1"
             id="stop26" />
        </meshpatch>
      </meshrow>
    </meshgradient>
    <meshgradient
       inkscape:collect="always"
       id="meshgradient26"
       gradientUnits="userSpaceOnUse"
       x="-126.84106"
       y="60.335243"
       gradientTransform="matrix(0.7437189,0,0,0.7437189,41.171783,39.638822)">
      <meshrow
         id="meshrow26">
        <meshpatch
           id="meshpatch26">
          <stop
             path="c 190.631,0  381.262,0  571.893,0"
             style="stop-color:#ffffff;stop-opacity:1"
             id="stop27" />
          <stop
             path="c 0,85.5225  0,171.045  0,256.567"
             style="stop-color:#800080;stop-opacity:1"
             id="stop28" />
          <stop
             path="c -190.631,0  -381.262,0  -571.893,0"
             style="stop-color:#ffffff;stop-opacity:1"
             id="stop29" />
          <stop
             path="c 0,-85.5225  0,-171.045  0,-256.567"
             style="stop-color:#800080;stop-opacity:1"
             id="stop30" />
        </meshpatch>
      </meshrow>
    </meshgradient>
    <meshgradient
       inkscape:collect="always"
       id="meshgradient30"
       gradientUnits="userSpaceOnUse"
       x="-121.47226"
       y="71.273384"
       gradientTransform="matrix(0.7437189,0,0,0.7437189,41.171783,39.638822)">
      <meshrow
         id="meshrow30">
        <meshpatch
           id="meshpatch30">
          <stop
             path="c 126.417,0  252.833,0  379.25,0"
             style="stop-color:#ffffff;stop-opacity:1"
             id="stop31" />
          <stop
             path="c 0,68.5009  0,137.002  0,205.503"
             style="stop-color:#800080;stop-opacity:1"
             id="stop32" />
          <stop
             path="c -126.417,0  -252.833,0  -379.25,0"
             style="stop-color:#ffffff;stop-opacity:1"
             id="stop33" />
          <stop
             path="c 0,-68.5009  0,-137.002  0,-205.503"
             style="stop-color:#800080;stop-opacity:1"
             id="stop34" />
        </meshpatch>
      </meshrow>
    </meshgradient>
    <meshgradient
       inkscape:collect="always"
       id="meshgradient34"
       gradientUnits="userSpaceOnUse"
       x="-82.719406"
       y="-78.643608"
       gradientTransform="matrix(0.7437189,0,0,0.7437189,41.171783,39.638822)">
      <meshrow
         id="meshrow34">
        <meshpatch
           id="meshpatch34">
          <stop
             path="c 164.086,0  328.171,0  492.257,0"
             style="stop-color:#ffffff;stop-opacity:1"
             id="stop35" />
          <stop
             path="c 0,66.7123  0,133.425  0,200.137"
             style="stop-color:#800080;stop-opacity:1"
             id="stop36" />
          <stop
             path="c -164.086,0  -328.171,0  -492.257,0"
             style="stop-color:#ffffff;stop-opacity:1"
             id="stop37" />
          <stop
             path="c 0,-66.7123  0,-133.425  0,-200.137"
             style="stop-color:#800080;stop-opacity:1"
             id="stop38" />
        </meshpatch>
      </meshrow>
    </meshgradient>
    <meshgradient
       inkscape:collect="always"
       id="meshgradient38"
       gradientUnits="userSpaceOnUse"
       x="-87.624107"
       y="5.0416617"
       gradientTransform="matrix(0.7437189,0,0,0.7437189,41.171783,39.638822)">
      <meshrow
         id="meshrow38">
        <meshpatch
           id="meshpatch38">
          <stop
             path="c 158.477,0  316.955,0  475.432,0"
             style="stop-color:#ffffff;stop-opacity:1"
             id="stop39" />
          <stop
             path="c 0,102.155  0,204.31  0,306.465"
             style="stop-color:#800080;stop-opacity:1"
             id="stop40" />
          <stop
             path="c -158.477,0  -316.955,0  -475.432,0"
             style="stop-color:#ffffff;stop-opacity:1"
             id="stop41" />
          <stop
             path="c 0,-102.155  0,-204.31  0,-306.465"
             style="stop-color:#800080;stop-opacity:1"
             id="stop42" />
        </meshpatch>
      </meshrow>
    </meshgradient>
  </defs>
  <g
     inkscape:label="Layer 1"
     inkscape:groupmode="layer"
     id="layer1">
    <path
       style="opacity:0.611002;fill:none;stroke:url(#meshgradient18);stroke-width:92.4257;stroke-opacity:1"
       id="path8"
       d="m 56.585278,82.242551 c -1.55183,-0.626407 -3.059452,-1.376225 -4.493269,-2.240133 -0.06414,-0.03866 -0.07515,-0.134774 -0.135368,-0.179272 -5.421541,-4.006782 0.249388,0.428248 -5.315535,-4.005132 -3.950981,-3.498108 -7.170399,-7.706818 -9.413921,-12.489226 -1.402543,-2.989716 -1.639367,-4.125303 -2.613514,-7.255988 -1.038733,-4.170726 -1.866609,-8.472445 -1.624026,-12.794383 0.12117,-2.15877 0.312166,-2.573388 0.800215,-4.604341 0.721373,-2.136066 1.752951,-4.183604 3.552864,-5.612369 0.989955,-0.78582 1.506328,-0.952595 2.646529,-1.49929 0.551453,-0.205623 1.094975,-0.433924 1.654361,-0.616878 1.285392,-0.420381 3.100382,-0.869731 4.389831,-1.169003 2.886771,-0.670008 5.757514,-1.191303 8.678255,-1.685017 4.223071,-0.612888 8.501368,-1.265164 12.775602,-1.367102 2.903305,-0.0692 3.792935,0.07179 6.74394,0.28909 1.319918,0.193519 2.645159,0.353682 3.959756,0.580555 3.16842,0.546795 6.046093,1.210091 9.17668,1.96428 4.624787,1.114163 9.216641,2.357239 13.807532,3.601633 6.20835,1.761798 12.50741,3.26844 18.58324,5.468458 1.18125,0.427718 2.34421,0.904366 3.51631,1.356551 8.0625,3.339483 15.8864,7.2174 23.71024,11.073524 3.79811,1.841781 7.53501,3.803782 11.20882,5.881967 2.32139,1.313148 4.56744,2.757586 6.80868,4.200916 2.43086,1.765602 5.39422,3.5348 7.03521,6.144645 0.20962,0.333391 0.36114,0.699965 0.54172,1.049953 0.20806,0.799499 0.42964,1.214042 0.19441,2.055159 -0.41973,1.50067 -2.13574,2.835711 -3.48205,3.396738 -1.22259,0.509474 -2.52736,0.793503 -3.79105,1.190243 -1.88021,0.35873 -3.74846,0.787076 -5.64064,1.076178 -4.63603,0.708324 -10.92802,1.285038 -15.52807,1.562615 -6.9243,0.417831 -13.2768,0.544848 -20.22018,0.534924 -3.49491,-0.0049 -6.98919,-0.09443 -10.4838,-0.141706 -10.79476,-0.21759 -21.576012,-0.819409 -32.365442,-1.188236 -4.924714,-0.168352 -5.427949,-0.158489 -10.122486,-0.239076 -5.485808,0.06858 -10.97631,0.237328 -16.444555,0.699583 -0.705195,0.140796 -1.594657,0.183237 -2.017723,0.875986 -0.25462,0.41692 -0.154207,0.880073 -0.0616,1.31939 0.245915,0.600466 0.103759,0.30272 0.43034,0.891402 0,0 2.639269,1.174606 2.639269,1.174606 v 0 c -0.330675,-0.545982 -0.181038,-0.273798 -0.452377,-0.814657 -0.100805,-0.322199 -0.254761,-0.739426 -0.07802,-1.073827 0.320658,-0.606707 1.209921,-0.640271 1.7632,-0.79168 5.305554,-0.627504 10.652542,-0.865952 15.990635,-0.993068 1.51302,6.2e-5 3.026076,-0.0099 4.539056,1.85e-4 12.380677,0.08705 24.752873,0.653792 37.131953,0.83331 9.95147,0.147469 10.9555,0.242486 20.86476,0.07228 3.37814,-0.05799 6.75719,-0.115739 10.13238,-0.268577 4.30329,-0.194861 11.49797,-0.769259 15.89806,-1.32157 1.97537,-0.24794 3.93383,-0.615818 5.90072,-0.923734 1.36426,-0.355849 2.76946,-0.581073 4.09276,-1.067572 1.43744,-0.528448 3.29475,-1.964845 3.77915,-3.516922 0.28531,-0.914167 0.0634,-1.324143 -0.14584,-2.20205 -0.18278,-0.367386 -0.33369,-0.752415 -0.54828,-1.102157 -1.65404,-2.695826 -4.76144,-4.543972 -7.26071,-6.340528 -0.85807,-0.549183 -1.708,-1.11127 -2.5742,-1.647536 -6.29691,-3.898455 -12.79776,-7.471129 -19.45937,-10.705486 -7.86079,-3.869767 -15.71982,-7.764085 -23.81365,-11.129831 -1.19111,-0.462366 -2.37166,-0.952941 -3.57335,-1.387099 -1.07091,-0.386888 -2.15689,-0.731126 -3.24229,-1.075279 -5.01734,-1.590885 -10.1271,-2.866972 -15.199133,-4.266358 -4.578813,-1.221886 -9.158425,-2.442467 -13.764349,-3.559363 -3.101507,-0.752095 -6.160758,-1.474814 -9.302669,-2.037282 -1.340118,-0.239913 -2.691587,-0.411404 -4.03738,-0.617112 -2.99811,-0.233091 -3.877933,-0.383466 -6.823812,-0.306758 -1.037179,0.02696 -2.072455,0.109829 -3.106476,0.195046 -3.239338,0.267123 -6.462334,0.719122 -9.675615,1.198578 -2.94349,0.480564 -5.872388,0.99287 -8.786679,1.630643 -1.315933,0.287982 -3.191049,0.715293 -4.50414,1.128605 -0.574555,0.180849 -1.131751,0.41282 -1.697626,0.61923 -1.174993,0.571517 -1.691758,0.736163 -2.704184,1.563219 -1.820723,1.487347 -2.822081,3.614388 -3.52133,5.808239 -0.468615,2.094916 -0.647789,2.480673 -0.740588,4.701807 -0.182812,4.375634 0.698628,8.716643 1.751074,12.936644 0.973699,3.14381 1.215901,4.297115 2.612598,7.302494 2.221062,4.779206 5.405447,8.998541 9.296643,12.543364 1.66688,1.349039 3.383574,2.816453 5.191237,3.987069 2.94722,1.908589 6.009164,3.706513 9.233496,5.111489 z" />
    <path
       style="opacity:0.611002;fill:none;stroke:url(#meshgradient22);stroke-width:92.4257;stroke-opacity:1"
       id="path9"
       d="m 251.70444,25.602177 c -0.26167,2.96e-4 -0.52363,-0.01108 -0.78503,8.87e-4 -8.33555,0.393698 -16.50976,2.221245 -24.64067,3.970362 -9.49631,2.217551 -18.97423,4.623844 -28.17354,7.887691 -1.28288,0.455163 -2.54895,0.956326 -3.82344,1.434489 -2.98622,1.158697 -5.90661,2.480329 -8.72283,4.007238 -1.54329,0.836732 -2.8732,1.601757 -4.28346,2.643188 -0.62178,0.459165 -1.19877,0.976076 -1.79815,1.464114 -0.52952,0.529963 -1.08915,1.031471 -1.58856,1.589901 -2.05168,2.294062 -3.5999,5.069008 -4.65534,7.95099 -0.27608,0.753844 -0.48478,1.530688 -0.72718,2.296033 -0.4791,2.08162 -0.73052,2.804669 -0.87422,4.973315 -0.20398,3.078504 0.15403,6.195017 0.97085,9.167804 0.3159,1.149734 0.75633,2.26157 1.1345,3.392354 1.51432,3.246277 1.68787,3.955131 3.75891,6.976971 0.81732,1.192533 1.65783,2.378369 2.62727,3.45089 2.21314,2.448476 5.91903,5.636649 8.5936,7.47907 1.93445,1.332577 4.01023,2.447306 6.01534,3.670953 2.7006,1.401253 5.3575,2.890143 8.10181,4.203763 2.28516,1.09383 4.62816,2.06514 6.97719,3.01408 4.29312,1.7343 9.82535,3.71559 14.28545,4.98573 5.71391,1.62721 9.09578,2.19847 14.88119,3.37098 5.9958,1.04976 12.03248,1.97073 18.11311,2.35842 2.6886,0.17142 5.57226,0.25176 8.26664,-0.0549 1.07094,-0.12189 2.12,-0.39074 3.18001,-0.58612 2.24609,-0.84566 3.01986,-0.93073 4.90263,-2.42629 1.42477,-1.13174 2.71896,-2.72608 3.68819,-4.24872 1.42188,-2.23373 1.81442,-3.4587 2.85506,-5.91667 1.80649,-4.991596 2.56081,-10.26161 2.5891,-15.556976 0.0208,-3.887607 -0.21653,-5.341687 -0.58494,-9.22906 -0.75901,-6.363467 -2.06387,-12.665087 -4.10528,-18.744586 -0.28912,-0.86099 -0.61626,-1.708731 -0.9244,-2.563096 -1.3832,-3.816008 -3.42068,-7.339764 -5.81727,-10.604755 -0.62429,-0.850487 -1.28769,-1.671558 -1.93153,-2.507331 -0.75963,-0.91519 -1.50854,-1.839405 -2.27894,-2.745581 -1.56539,-1.841326 -3.49771,-3.997942 -5.09,-5.814863 -2.11337,-2.411427 -4.20401,-4.839033 -6.25665,-7.302174 0,0 -2.30572,-0.977664 -2.30572,-0.977664 v 0 c 4.55016,5.304231 9.28592,10.450096 13.69082,15.877258 0.62482,0.823078 1.26894,1.631836 1.87447,2.469222 2.36294,3.267824 4.38085,6.785385 5.8435,10.548512 0.32824,0.85993 0.67598,1.712683 0.98471,2.579816 2.16599,6.083673 3.5884,12.409192 4.3707,18.816627 0.35738,3.887608 0.58944,5.288176 0.54305,9.173062 -0.0628,5.251866 -0.86069,10.472961 -2.68765,15.409599 -1.08185,2.47229 -1.44071,3.58582 -2.90368,5.82224 -1.49338,2.28293 -3.40829,4.30945 -5.87186,5.54954 -0.82291,0.41424 -1.71733,0.66782 -2.57597,1.00174 -1.02876,0.20511 -2.04595,0.48075 -3.08629,0.61532 -2.61972,0.3389 -5.42015,0.30905 -8.04209,0.17877 -5.97158,-0.29675 -11.90497,-1.14264 -17.7928,-2.14616 -6.20776,-1.24317 -8.70911,-1.61574 -14.86268,-3.3808 -2.40498,-0.68982 -4.78299,-1.47436 -7.14466,-2.30033 -6.58386,-2.30267 -13.01117,-5.05055 -19.22133,-8.225162 -1.95292,-1.195017 -3.97526,-2.283372 -5.85877,-3.585057 -2.71238,-1.874508 -6.12894,-4.835426 -8.35948,-7.324817 -0.95437,-1.065109 -1.7914,-2.233287 -2.59938,-3.413298 -2.04003,-2.979326 -2.21347,-3.689767 -3.69916,-6.89199 -0.36966,-1.116649 -0.80198,-2.214473 -1.10897,-3.349961 -0.79359,-2.935381 -1.11912,-6.004318 -0.89717,-9.038114 0.1556,-2.126475 0.40864,-2.873042 0.88107,-4.917539 0.6268,-1.967802 0.74364,-2.562455 1.62314,-4.426534 1.29189,-2.738095 3.05186,-5.225442 5.28618,-7.274298 0.5902,-0.484726 1.15937,-0.996268 1.77063,-1.454153 1.37103,-1.027001 2.70762,-1.824296 4.20391,-2.661214 2.75744,-1.5423 5.61798,-2.891043 8.53732,-4.097232 1.24475,-0.495141 2.4805,-1.013506 3.73426,-1.485414 9.05769,-3.409308 18.42859,-5.914817 27.85221,-8.077417 2.23608,-0.460532 4.46451,-0.959799 6.70821,-1.381607 5.30403,-0.997155 10.66002,-1.813351 16.06251,-1.982071 1.68095,-0.05245 2.19242,0.0012 3.52501,0.09862 z" />
    <path
       style="opacity:0.611002;fill:none;stroke:url(#meshgradient26);stroke-width:92.4257;stroke-opacity:1"
       id="path10"
       d="m 269.6531,186.26087 c -0.0387,-0.2642 -0.0493,-0.53408 -0.11586,-0.79263 -0.27466,-1.06481 -1.05206,-3.26331 -1.38838,-4.16517 -0.6677,-1.79059 -1.57266,-4.02513 -2.36161,-5.75133 -0.47273,-1.03423 -0.99087,-2.04707 -1.48631,-3.0706 -1.59192,-2.72901 -2.13404,-3.91849 -4.22635,-6.38857 -2.17478,-2.56743 -4.48575,-4.64463 -7.235,-6.60664 -1.67796,-1.1975 -3.40641,-2.33471 -5.21425,-3.3253 -2.90934,-1.59417 -5.94526,-2.94557 -8.91791,-4.41835 -9.50563,-4.08993 -19.34393,-7.37137 -29.32574,-10.08368 -3.62908,-0.98611 -7.27334,-1.92483 -10.9474,-2.72716 -8.79323,-1.9202 -15.42867,-2.83022 -24.31441,-4.22871 -11.05411,-1.54035 -22.16326,-2.71057 -33.30326,-3.40985 -3.28255,-0.20605 -6.56765,-0.38864 -9.85547,-0.47795 -8.23506,-0.22371 -11.92509,-0.0147 -20.15305,0.20429 -12.223342,0.55428 -24.41163,1.73109 -36.538201,3.34685 -6.238824,0.83126 -9.077869,1.30076 -15.233518,2.25056 -10.006524,1.6779 -20.007152,3.45444 -29.899275,5.72459 -1.570644,0.36044 -3.133965,0.7521 -4.700947,1.12814 -5.279348,1.35752 -10.578116,2.80229 -15.5457734,5.08913 -3.0526054,1.40528 -3.3994464,1.73781 -6.2246561,3.48575 -3.23972007,2.29339 -6.2633401,5.0388 -7.9914699,8.68823 -0.9838414,2.07765 -0.9424054,2.69742 -1.3417736,4.93014 0.069665,1.01525 0.064654,2.03842 0.2090202,3.04576 0.4719896,3.29358 1.6628194,6.424 2.9939057,9.45049 0.3887152,0.88381 0.7923682,1.76173 1.2285992,2.62309 0.4005218,0.79083 0.8535757,1.55396 1.28036545,2.33094 1.55211249,2.62311 3.37086125,5.07903 5.42243785,7.3326 0.7718564,0.84785 1.5712538,1.61789 2.3853047,2.42128 1.5019554,1.52545 3.2869319,2.70779 5.0274289,3.93526 5.354442,3.76047 11.106501,6.93122 16.957488,9.84605 1.675359,0.83464 3.370083,1.62982 5.055124,2.44474 1.840517,0.84168 3.670053,1.70779 5.521548,2.52504 1.918601,0.84686 3.83649,1.69834 5.787788,2.46688 6.383883,2.51437 12.966306,4.56521 19.58234,6.36938 2.022179,0.55144 4.060936,1.04018 6.091405,1.56027 6.140744,1.51675 12.348055,2.73446 18.557922,3.92659 1.182527,0.22701 2.361121,0.47569 3.547797,0.67992 1.417437,0.24391 2.842248,0.44286 4.263371,0.66428 11.570619,1.70315 23.293359,2.10164 34.971029,1.65885 3.42645,-0.12992 6.84763,-0.37402 10.27146,-0.56102 3.6885,-0.33009 7.38504,-0.58025 11.06552,-0.99023 7.74589,-0.86289 15.40716,-2.02103 23.04221,-3.59447 7.29818,-1.50402 13.66322,-3.12479 20.68653,-5.55916 2.89867,-1.00473 5.7125,-2.23928 8.56876,-3.35893 6.41327,-2.82762 12.50104,-6.33335 17.98992,-10.70258 3.75099,-2.98584 6.9893,-6.47255 10.24708,-9.96741 4.75188,-5.21804 9.86545,-10.18039 15.8537,-13.97464 1.17646,-0.74542 2.40901,-1.39839 3.61352,-2.0976 5.24653,-2.82612 10.78518,-5.03737 16.34052,-7.16761 0.42909,-0.15785 0.85818,-0.31571 1.28726,-0.47356 0,0 -2.27839,-1.52829 -2.27839,-1.52829 v 0 c -0.40953,0.17203 -0.81906,0.34404 -1.22859,0.51606 -5.41205,2.31012 -10.83334,4.62136 -16.01451,7.42408 -1.21209,0.70167 -2.45461,1.35318 -3.63625,2.10498 -5.98524,3.8081 -11.08296,8.82641 -15.83942,14.04148 -3.19281,3.50011 -6.35093,7.03064 -9.99708,10.07785 -5.31421,4.44125 -11.2299,8.05034 -17.50877,10.96294 -8.06622,3.31513 -9.42822,4.14037 -18.11918,6.55364 -3.55649,0.98755 -7.15352,1.83267 -10.76647,2.58802 -11.29374,2.36117 -22.77255,3.73195 -34.28168,4.44399 -3.47602,0.14737 -6.94997,0.35707 -10.42806,0.44208 -11.906,0.29098 -23.85237,-0.28044 -35.618817,-2.17618 -8.736603,-1.49936 -17.467667,-3.07817 -26.102526,-5.09098 -5.431044,-1.36574 -7.01735,-1.69468 -12.475252,-3.36412 -4.527724,-1.38493 -8.773088,-2.8293 -13.172438,-4.58269 -1.957964,-0.78036 -3.885693,-1.63528 -5.811416,-2.49213 -1.871046,-0.83251 -3.718548,-1.71696 -5.577822,-2.57546 -6.24145,-3.05767 -3.825797,-1.81747 -9.664,-4.88658 -0.558086,-0.29339 -1.124412,-0.57216 -1.670171,-0.88788 -2.263625,-1.30952 -4.457755,-2.73247 -6.576693,-4.26466 -1.728284,-1.2459 -3.510499,-2.43469 -5.0614769,-3.90459 -0.8197853,-0.78434 -1.7005899,-1.60757 -2.4729868,-2.43464 -2.0941542,-2.24236 -3.9387915,-4.70566 -5.5369942,-7.32358 -0.44171384,-0.778 -0.90838061,-1.54236 -1.32514171,-2.334 -1.91986529,-3.64686 -3.71997139,-7.88836 -4.27723739,-11.9945 -0.1327308,-0.97802 -0.1096075,-1.97092 -0.1644162,-2.95637 0.3798808,-2.20936 0.3332601,-2.7988 1.283084,-4.86207 1.6687581,-3.62497 4.6078442,-6.37924 7.8032607,-8.66132 2.8206318,-1.7555 3.1219466,-2.06049 6.1709995,-3.47656 4.915832,-2.28306 10.149225,-3.77774 15.372741,-5.16375 1.550344,-0.38597 3.097215,-0.78617 4.651034,-1.15791 9.77945,-2.33967 19.665262,-4.21843 29.569783,-5.9396 6.112194,-0.98597 8.906517,-1.46775 15.102137,-2.33762 12.039953,-1.69042 24.14455,-2.95576 36.293909,-3.504 9.2737,-0.24763 10.88778,-0.41218 20.18143,-0.17226 14.32224,0.36975 28.60874,1.75499 42.8041,3.63946 10.17758,1.59993 14.36524,2.0936 24.45245,4.34394 3.68256,0.82154 7.33989,1.75814 10.9784,2.7568 6.90496,1.89519 13.96651,4.15017 20.66647,6.68934 3.04189,1.15283 6.01766,2.4731 9.0265,3.70966 1.96489,0.9139 3.99249,1.70359 5.89468,2.74168 1.76441,0.96291 3.44628,2.07796 5.08071,3.24798 2.68112,1.91931 4.94313,3.96253 7.06158,6.47409 2.06015,2.44249 2.58638,3.6088 4.15224,6.30817 0.48757,1.01576 0.99971,2.02011 1.46278,3.04729 0.77647,1.72245 1.63418,3.88441 2.25761,5.68141 0.39707,1.14457 0.90219,2.74473 1.14659,3.98662 0.0471,0.23886 0.0409,0.48518 0.0613,0.72778 z" />
    <path
       style="opacity:0.611002;fill:none;stroke:url(#meshgradient30);stroke-width:92.4257;stroke-opacity:1"
       id="path11"
       d="m 119.90585,195.90712 c -1.0794,-0.32729 -0.88072,-0.2482 -2.41538,-0.90268 -2.11108,-0.90032 -5.24167,-2.35388 -7.20159,-3.27421 -4.67312,-2.19438 -5.56084,-2.64961 -10.28593,-4.95412 -5.353128,-2.69665 -10.89045,-5.19067 -15.608831,-8.95674 -2.748459,-2.19373 -2.903162,-2.63702 -5.116524,-5.27266 -0.622127,-0.9967 -1.313379,-1.95346 -1.86638,-2.99011 -1.038595,-1.94693 -1.996863,-4.45588 -2.48528,-6.60896 -0.266741,-1.17588 -0.54223,-2.37082 -0.540909,-3.57656 0.0041,-3.8985 0.832946,-4.79755 2.355787,-8.37557 1.045916,-1.33152 1.829895,-2.91918 3.137748,-3.99454 3.801351,-3.12557 9.304729,-4.90967 13.959138,-5.9009 6.310541,-1.34394 13.386651,-1.66822 19.798561,-1.419 3.52995,0.13719 7.03704,0.63042 10.55557,0.94564 3.47631,0.62183 6.98161,1.09906 10.42895,1.86546 9.47504,2.10645 18.74835,5.34443 27.3682,9.82455 5.26335,2.73558 6.69152,4.17584 11.45839,7.83099 1.52342,1.73731 3.1923,3.35711 4.57021,5.21192 4.03965,5.43781 7.03338,12.66176 6.61324,19.55129 -0.0702,1.15103 -0.39786,2.27174 -0.5968,3.40763 -1.01828,2.23906 -1.07866,3.12279 -3.06714,4.66282 -1.64625,1.27498 -3.90667,1.98625 -5.88483,2.42221 -3.68536,0.81218 -6.99214,1.01935 -10.76356,1.39924 -6.47437,0.52344 -12.96809,0.74214 -19.45814,0.96119 -4.39073,0.1482 -7.09556,0.24813 -11.42662,0.2551 -1.52802,0.002 -3.05584,-0.0341 -4.58375,-0.0512 -4.89873,-0.32979 -2.57312,-0.0858 -6.98157,-0.68506 0,0 1.95731,1.45941 1.95731,1.45941 v 0 c 4.29447,0.4831 2.02778,0.29517 6.80369,0.51897 1.49105,-0.0111 2.98229,-0.009 4.47316,-0.0344 4.41148,-0.0772 6.78567,-0.19332 11.2778,-0.36706 3.46844,-0.13416 9.55539,-0.36007 12.99996,-0.53778 2.17639,-0.11229 4.35093,-0.25826 6.5264,-0.38739 3.10367,-0.26211 7.97369,-0.57398 11.13136,-1.1936 2.0288,-0.3981 4.39881,-1.13883 6.0697,-2.46099 2.00725,-1.5883 2.05963,-2.55413 3.02565,-4.84918 0.17144,-1.16779 0.47154,-2.32383 0.51433,-3.50336 0.25461,-7.02017 -2.86322,-14.34085 -6.98777,-19.87473 -1.39427,-1.87067 -3.07376,-3.51078 -4.61065,-5.26617 -1.95595,-1.4906 -3.81548,-3.11704 -5.86785,-4.47181 -10.73807,-7.08817 -22.9581,-11.76325 -35.48822,-14.52172 -3.44903,-0.75928 -6.95416,-1.23644 -10.43124,-1.85466 -3.53388,-0.32155 -7.0563,-0.81555 -10.60166,-0.96468 -6.47262,-0.27226 -13.685801,0.0168 -20.075215,1.26995 -4.598406,0.90188 -10.644349,2.6775 -14.509138,5.6805 -1.354728,1.05265 -2.157388,2.66816 -3.236083,4.00223 -1.545051,3.45781 -2.493816,4.59635 -2.5676,8.40688 -0.0235,1.21287 0.254681,2.41779 0.514523,3.60274 0.471372,2.14955 1.434075,4.71691 2.457033,6.66388 0.550932,1.04859 1.242535,2.017 1.863801,3.02548 0.775059,0.92963 1.483766,1.91884 2.325177,2.78885 1.805448,1.86683 4.154172,3.66586 6.332343,5.04715 5.054553,3.20537 10.401707,5.90796 15.769429,8.53781 4.77016,2.33741 5.72632,2.81946 10.4541,5.0839 1.4407,0.69003 2.88253,1.37774 4.32894,2.0557 1.47278,0.69028 3.61302,1.70162 5.23511,2.32747 0.22464,0.0866 0.46247,0.13421 0.6937,0.20132 z" />
    <path
       style="opacity:0.611002;fill:none;stroke:url(#meshgradient34);stroke-width:92.4257;stroke-opacity:1"
       id="path12"
       d="m 267.91073,29.910128 c -0.24014,-0.08175 -0.4762,-0.176465 -0.7204,-0.245121 -2.85627,-0.803046 -5.83771,-1.230838 -8.77996,-1.541758 -5.89765,-0.623231 -6.90927,-0.534 -13.18515,-0.746074 -2.79887,0.05109 -5.5998,0.03386 -8.3966,0.153218 -12.08153,0.515496 -24.13482,2.093908 -35.96185,4.603382 -2.63661,0.559438 -5.24783,1.232388 -7.87175,1.848589 -2.33859,0.663826 -4.69048,1.282551 -7.01581,1.991491 -4.38972,1.338352 -7.53814,2.476783 -11.77586,4.121758 -3.74028,1.451863 -6.36862,2.610535 -10.07996,4.10367 -1.63104,0.656192 -3.27195,1.287575 -4.9079,1.931368 -6.4151,2.471267 -13.04,4.46139 -19.88752,5.264055 -4.36291,0.511419 -6.1577,0.421131 -10.53581,0.477301 -6.27468,-0.1134 -12.52421,-0.801913 -18.71193,-1.823262 -3.39387,-0.56019 -4.83411,-0.879853 -8.17354,-1.552285 -5.471868,-1.154856 -10.919683,-2.446223 -16.312685,-3.928719 -0.902143,-0.284645 -1.742308,-0.522539 -2.610701,-0.897325 -0.922839,-0.398303 -2.241228,-1.101554 -3.096673,-1.572305 -1.314045,-0.723112 -2.611378,-1.476193 -3.918533,-2.211691 -3.141177,-1.754348 -6.351468,-3.396639 -9.672585,-4.785818 -2.260144,-0.945393 -3.008677,-1.175245 -5.324655,-1.997979 -2.677147,-0.919832 -5.41086,-1.675646 -8.189676,-2.219288 -1.712423,-0.335003 -3.525131,-0.621852 -5.272156,-0.698918 -0.885991,-0.03903 -1.77367,0.01109 -2.660506,0.01662 -0.890096,0.100714 -1.790014,0.136264 -2.670289,0.30219 -3.751112,0.707044 -7.160226,2.583152 -10.067031,5.01652 -0.707196,0.592019 -1.344419,1.262912 -2.016628,1.894369 -0.546158,0.69047 -1.214724,1.299739 -1.638476,2.0714 -1.902315,3.464186 -1.605054,8.656101 -0.0736,12.191135 0.476785,1.100545 1.193849,2.080598 1.790775,3.120896 0.993448,1.021584 1.864748,2.178176 2.980345,3.064751 1.411999,1.122116 2.949887,2.097232 4.553576,2.922515 2.577411,1.326359 5.216708,2.561408 7.954318,3.514188 2.596363,0.903628 5.296655,1.495461 7.992155,2.035767 8.357938,1.675314 12.188553,1.702647 20.89795,2.401208 4.224923,0.10712 8.448574,0.294224 12.674769,0.321521 4.536345,0.0293 9.073017,-0.05737 13.608466,-0.151778 9.50041,-0.197681 18.06698,-0.591797 27.55737,-0.965709 16.40972,-0.64654 9.50918,-0.405629 25.39941,-0.867933 13.12534,-0.296638 26.26628,0.0012 39.35296,1.072384 6.04641,0.494786 9.21851,0.903605 15.20655,1.586306 10.35981,1.293041 20.67785,2.911888 30.91593,4.960522 5.10034,1.020587 10.94403,2.334411 16.02401,3.454078 7.26507,1.589285 14.51888,3.294112 21.86379,4.489353 2.57352,0.418779 7.81198,1.182695 10.60651,1.054976 1.31671,-0.06021 2.5996,-0.437705 3.8994,-0.65655 1.00625,-0.488038 2.10227,-0.823165 3.01873,-1.464114 3.85007,-2.692575 4.95389,-7.840139 4.84215,-12.239093 -0.0352,-1.384832 -0.29222,-2.755098 -0.43832,-4.132641 -0.35838,-1.417449 -0.62502,-2.861309 -1.07511,-4.252359 -0.98386,-3.040815 -2.18681,-5.50366 -3.87897,-8.212524 -0.78322,-1.253801 -1.66276,-2.446174 -2.55209,-3.627059 -0.78998,-1.048992 -1.60838,-2.079046 -2.48295,-3.058656 -0.81172,-0.90923 -1.71325,-1.734081 -2.56987,-2.601117 -0.87697,-0.716044 -1.71821,-1.478248 -2.63091,-2.148144 -0.85186,-0.625226 -1.7424,-1.199527 -2.6553,-1.731681 -3.07246,-1.791041 -4.26206,-2.4765 -7.1899,-3.574545 -1.99363,-0.747676 -2.51464,-0.837928 -4.51843,-1.375254 -2.27985,-0.517416 -1.41248,-0.34223 -3.52279,-0.745311 -0.68145,-0.130158 -1.52185,-0.25411 -2.19547,-0.482509 -0.22521,-0.07634 -0.85414,-0.415652 -0.65089,-0.292143 0.66268,0.402698 1.35503,0.754471 2.03252,1.131708 0,0 -2.69116,-1.044892 -2.69116,-1.044892 v 0 c 0.9674,0.55976 1.91852,1.148676 2.90222,1.679291 0.38702,0.208761 1.15603,0.358372 1.54429,0.432273 1.54718,0.294446 3.11615,0.482695 4.63909,0.900661 1.95458,0.524163 2.49335,0.619316 4.43661,1.353311 0.82954,0.313321 1.63035,0.699004 2.45785,1.017546 0.15748,0.06058 0.34608,0.03386 0.49229,0.118078 2.65442,1.529716 2.94999,1.921013 5.38284,3.863795 0.87507,0.86669 1.79422,1.691012 2.62519,2.60007 0.90032,0.984916 1.74922,2.017667 2.56277,3.075388 2.84137,3.694213 5.01138,7.295723 6.45314,11.759243 0.4442,1.375168 0.70199,2.803722 1.05297,4.205584 0.13584,1.357855 0.38319,2.709147 0.40754,4.073553 0.0769,4.311903 -1.07217,9.312121 -4.79193,11.982029 -0.8794,0.63121 -1.93223,0.976568 -2.89836,1.464852 -1.2507,0.233818 -2.48225,0.620756 -3.75204,0.701442 -2.77044,0.176033 -7.74506,-0.478743 -10.31295,-0.869818 -7.28455,-1.109373 -14.47109,-2.78758 -21.66647,-4.348028 -4.95145,-1.0887 -11.06307,-2.455938 -16.03153,-3.454065 -10.27122,-2.063397 -20.61936,-3.727518 -31.0156,-5.019649 -6.23363,-0.687454 -8.78504,-1.026016 -15.0837,-1.485956 -12.91945,-0.943373 -25.88737,-1.067178 -38.83194,-0.677924 -19.75482,0.726215 -4.59493,0.141042 -25.19489,1.016092 -13.75046,0.584113 -27.52153,1.231133 -41.289578,1.021424 C 82.300779,68.526624 78.016317,68.282512 73.729557,68.127766 69.907212,67.771781 66.070225,67.54811 62.262521,67.059788 55.004,66.128925 51.073061,65.240121 44.237445,63.177057 40.387098,62.014985 38.4534,61.273971 35.234808,58.727436 c -1.0849,-0.858366 -1.933978,-1.978611 -2.900967,-2.967923 -0.590439,-1.016868 -1.298136,-1.974154 -1.77132,-3.050604 -1.54269,-3.509496 -1.838668,-8.488192 0.06316,-11.92928 0.419422,-0.75888 1.06672,-1.367251 1.60008,-2.050876 0.66215,-0.626481 1.288108,-1.293595 1.986453,-1.879457 2.885163,-2.420489 6.288451,-4.225738 10.017549,-4.889281 0.877113,-0.156064 1.772124,-0.185257 2.658186,-0.277885 0.882909,0.0024 1.766945,-0.03879 2.648728,0.0062 1.718889,0.08693 3.551405,0.377728 5.236409,0.710147 2.768709,0.546203 5.490003,1.309047 8.155812,2.23256 2.335695,0.8398 3.046391,1.059027 5.325019,2.021731 3.334944,1.40899 6.557831,3.070735 9.710097,4.847184 1.329032,0.752909 2.648409,1.523117 3.987221,2.258491 0.923153,0.507061 2.209212,1.191376 3.200351,1.607225 0.824055,0.345753 1.718292,0.583191 2.57173,0.835736 5.30157,1.359776 10.645635,2.561199 16.003934,3.673601 3.24377,0.63627 4.8372,0.976654 8.13119,1.5069 6.15625,0.990999 12.37465,1.633856 18.61373,1.707499 4.37971,-0.06846 6.18876,0.01366 10.55544,-0.49944 6.87791,-0.808106 13.47643,-2.793933 19.90928,-5.304539 1.63268,-0.647291 3.27077,-1.281111 4.89807,-1.941859 2.41078,-0.978895 7.61127,-3.188628 10.00165,-4.149682 4.28648,-1.723395 7.12035,-2.81292 11.57424,-4.240194 2.28565,-0.732457 4.59918,-1.374884 6.89876,-2.062326 2.5907,-0.63654 5.16688,-1.335298 7.77206,-1.909611 11.81235,-2.60401 23.88923,-4.172265 35.98192,-4.555768 2.84571,-0.09025 5.69423,-0.0245 8.54135,-0.03682 6.44255,0.338045 7.51156,0.253149 13.57324,1.059508 3.0971,0.411994 6.27504,0.951942 9.24557,1.967283 0.26581,0.09087 0.51797,0.217577 0.77696,0.326361 z" />
    <path
       style="opacity:0.611002;fill:none;stroke:url(#meshgradient38);stroke-width:92.4257;stroke-opacity:1"
       id="path13"
       d="m 37.312822,113.30605 c -0.172765,0.0675 -0.350956,0.1224 -0.518299,0.2024 -1.957111,0.93535 -3.692936,2.37802 -5.255257,3.85835 -0.670922,0.63572 -1.300605,1.31359 -1.950907,1.97038 -0.664281,0.7972 -1.372687,1.55957 -1.992847,2.39154 -2.002889,2.68696 -3.644275,5.71882 -4.584105,8.94766 -0.312726,1.07439 -0.625811,2.16672 -0.699392,3.28327 -0.08381,1.27186 0.154329,2.54455 0.231492,3.81685 0.352169,1.35732 0.597378,2.747 1.056506,4.07199 0.988785,2.8535 2.613179,5.85814 4.155688,8.43112 1.629315,2.71777 3.728239,5.72291 5.611735,8.2639 1.034469,1.39558 2.118098,2.75405 3.177146,4.13109 6.398775,8.16234 14.059011,15.23326 22.471736,21.27922 1.914761,1.37608 3.902143,2.64819 5.853213,3.97227 5.793981,3.46956 7.987362,4.94647 14.406051,8.00247 4.652272,2.21499 10.142468,4.22537 15.028621,5.81019 6.193307,2.00878 9.726987,2.83435 16.012867,4.47573 13.18082,3.20665 26.36776,6.39219 39.57788,9.47633 11.06109,2.58969 22.16982,5.01669 33.39094,6.81375 2.45605,0.39332 4.92111,0.72819 7.38166,1.0923 8.40496,1.14093 16.93342,2.02515 25.40384,1.04372 4.12056,-0.47743 5.38931,-0.91674 9.33379,-1.88886 5.31584,-1.52713 10.30913,-3.92002 15.32838,-6.19802 4.68615,-2.12683 3.27145,-1.48771 8.15879,-3.62122 5.85768,-2.57689 11.87371,-4.77233 17.75654,-7.28797 3.41707,-1.4612 3.58523,-1.58919 6.79771,-3.15346 2.82293,-1.4575 5.9338,-2.75775 7.91335,-5.37805 1.18849,-1.5732 1.20126,-2.15217 1.8256,-4.035 0.0645,-1.03569 0.19469,-2.0694 0.19347,-3.10711 -0.005,-3.67295 -0.66838,-7.34905 -1.75815,-10.84868 -0.9409,-3.02165 -1.46886,-3.94613 -2.76143,-6.76916 -1.69077,-3.3231 -3.82142,-6.39845 -6.55157,-8.95201 -1.54466,-1.44474 -2.47949,-2.0825 -4.17612,-3.36939 -7.47845,-5.2045 -15.52876,-9.66452 -24.14065,-12.70001 -2.14904,-0.75747 -4.35118,-1.35493 -6.52676,-2.0324 -11.48663,-3.06853 -23.38532,-3.87726 -35.20809,-4.4907 -6.23003,-0.32326 -17.24241,-0.70154 -23.42014,-0.92747 -13.63378,-0.47196 -27.27126,-1.16061 -40.83333,-2.68327 -5.369,-0.60279 -6.8823,-0.87669 -11.93001,-1.6431 -4.24497,-0.60162 -8.41319,-1.60932 -12.61236,-2.45006 -2.40688,-0.48192 -3.12848,-0.58072 -5.59924,-0.99268 -7.1045,-1.08103 -14.22502,-2.04925 -21.328826,-3.13531 -6.167592,-0.98836 -12.317544,-2.09355 -18.432793,-3.36813 -1.681735,-0.35052 -6.194366,-1.35606 -7.956388,-1.74664 -4.151056,-0.93437 -8.273673,-1.99227 -12.441011,-2.85392 -2.151823,-0.44492 -3.119004,-0.61392 -5.248163,-1.00942 -1.849807,-0.32087 -3.703134,-0.62196 -5.55256,-0.94505 -0.493514,-0.0861 -1.468863,-0.24513 -1.987148,-0.41536 -0.223095,-0.0732 -0.430195,-0.18838 -0.645293,-0.28258 0.655785,0.36576 1.289424,0.7744 1.967352,1.09726 0.157618,0.0751 -0.276443,-0.21641 -0.392204,-0.34708 -0.574804,-0.6489 -0.623834,-1.39462 -0.651193,-2.2143 0.02693,-0.21889 0.05387,-0.43779 0.08079,-0.65667 0,0 -2.529579,-1.33083 -2.529579,-1.33083 v 0 c -0.03227,0.23121 -0.06454,0.46242 -0.09682,0.69363 -0.01059,0.86399 0.0094,1.66795 0.533091,2.4064 0.716352,1.00996 2.814811,1.8171 3.333867,2.11601 0.216653,0.0768 0.428099,0.17036 0.649964,0.23053 0.496256,0.13458 1.452204,0.26958 1.917175,0.33993 1.800649,0.27243 3.60319,0.53293 5.39892,0.83715 2.287654,0.41228 2.869828,0.50407 5.196245,0.97934 4.120126,0.84171 8.198933,1.86902 12.309382,2.75523 1.811374,0.38791 6.122603,1.31595 7.859126,1.66736 6.142619,1.24307 12.310579,2.36808 18.491573,3.40186 1.395544,0.22822 2.789514,0.4663 4.186632,0.68468 5.762431,0.90073 11.557201,1.58943 17.306391,2.57771 2.74805,0.4815 2.98401,0.50512 5.64243,1.03697 4.07365,0.81497 8.13852,1.69059 12.27049,2.17309 5.0128,0.6416 6.15938,0.82663 11.52089,1.32785 13.40845,1.25349 26.86821,1.81506 40.32246,2.29859 7.99585,0.31668 15.61384,0.57466 23.59846,1.06222 9.50094,0.58015 19.03025,1.32244 28.38152,3.18495 2.4589,0.48974 4.88096,1.14899 7.32145,1.7235 2.19104,0.69546 4.40935,1.3103 6.57316,2.08638 4.40014,1.5782 7.33069,2.98492 11.46796,5.07458 0.92392,0.46665 1.83899,0.95338 2.72732,1.48462 2.01916,1.2075 4.19455,2.7272 6.14883,4.05865 1.68499,1.2704 2.61141,1.90208 4.1541,3.32174 2.77545,2.55412 4.98971,5.61174 6.74421,8.94318 0.50486,1.06819 1.05921,2.11438 1.51459,3.20456 1.87241,4.48242 3.08132,9.38268 2.98585,14.26653 -0.0197,1.00116 -0.18503,1.99412 -0.27756,2.9912 -0.62792,1.826 -0.65268,2.38688 -1.80526,3.91868 -1.92752,2.56171 -4.94896,3.90782 -7.65982,5.43304 -1.02971,0.5252 -2.04887,1.0716 -3.08909,1.57562 -6.93419,3.35967 -14.20895,5.94667 -21.29044,8.96612 -4.42658,1.87381 -3.9956,1.6634 -8.24707,3.56809 -5.00547,2.24248 -9.95407,4.66697 -15.23719,6.21076 -3.85415,0.9827 -5.1657,1.43956 -9.19014,1.94654 -8.36057,1.05322 -16.79258,0.25343 -25.09908,-0.87311 -2.45546,-0.36203 -4.91595,-0.69149 -7.36636,-1.08608 -11.30383,-1.82029 -22.46642,-4.38526 -33.60922,-6.99211 -13.09561,-3.03053 -26.18494,-6.09111 -39.25381,-9.23464 -6.34642,-1.65574 -9.75478,-2.4425 -16.007151,-4.48798 -5.825704,-1.90591 -9.557469,-3.36961 -15.10941,-5.90163 -1.776312,-0.81011 -3.539009,-1.65639 -5.249138,-2.59819 -2.10866,-1.16132 -4.132216,-2.47086 -6.198327,-3.70628 -1.942977,-1.31739 -3.922551,-2.58236 -5.82893,-3.95217 -8.337917,-5.99115 -15.901903,-13.019 -22.22493,-21.12139 -1.051666,-1.37115 -2.12706,-2.7244 -3.154997,-4.11341 -1.856429,-2.50853 -3.979926,-5.54211 -5.585763,-8.22588 -1.519807,-2.53998 -3.115876,-5.51367 -4.079598,-8.33413 -0.445063,-1.30255 -0.677492,-2.66828 -1.016238,-4.00243 -0.06461,-1.24234 -0.279771,-2.48596 -0.193854,-3.72698 0.07654,-1.10559 0.370705,-2.18999 0.677223,-3.25499 0.922555,-3.20542 2.5545,-6.21569 4.581657,-8.85146 0.629993,-0.81914 1.353487,-1.56191 2.030229,-2.34287 0.667717,-0.63869 1.31303,-1.30163 2.003151,-1.91601 1.602703,-1.42684 3.422794,-2.83987 5.454357,-3.60581 0.17938,-0.0675 0.368617,-0.10552 0.552926,-0.1582 z" />
  </g>
  <script
     id="mesh_polyfill"
     type="text/javascript">
!function(){const t=&quot;http://www.w3.org/2000/svg&quot;,e=&quot;http://www.w3.org/1999/xlink&quot;,s=&quot;http://www.w3.org/1999/xhtml&quot;,r=2;if(document.createElementNS(t,&quot;meshgradient&quot;).x)return;const n=(t,e,s,r)=&gt;{let n=new x(.5*(e.x+s.x),.5*(e.y+s.y)),o=new x(.5*(t.x+e.x),.5*(t.y+e.y)),i=new x(.5*(s.x+r.x),.5*(s.y+r.y)),a=new x(.5*(n.x+o.x),.5*(n.y+o.y)),h=new x(.5*(n.x+i.x),.5*(n.y+i.y)),l=new x(.5*(a.x+h.x),.5*(a.y+h.y));return[[t,o,a,l],[l,h,i,r]]},o=t=&gt;{let e=t[0].distSquared(t[1]),s=t[2].distSquared(t[3]),r=.25*t[0].distSquared(t[2]),n=.25*t[1].distSquared(t[3]),o=e&gt;s?e:s,i=r&gt;n?r:n;return 18*(o&gt;i?o:i)},i=(t,e)=&gt;Math.sqrt(t.distSquared(e)),a=(t,e)=&gt;t.scale(2/3).add(e.scale(1/3)),h=t=&gt;{let e,s,r,n,o,i,a,h=new g;return t.match(/(\w+\(\s*[^)]+\))+/g).forEach(t=&gt;{let l=t.match(/[\w.-]+/g),d=l.shift();switch(d){case&quot;translate&quot;:2===l.length?e=new g(1,0,0,1,l[0],l[1]):(console.error(&quot;mesh.js: translate does not have 2 arguments!&quot;),e=new g(1,0,0,1,0,0)),h=h.append(e);break;case&quot;scale&quot;:1===l.length?s=new g(l[0],0,0,l[0],0,0):2===l.length?s=new g(l[0],0,0,l[1],0,0):(console.error(&quot;mesh.js: scale does not have 1 or 2 arguments!&quot;),s=new g(1,0,0,1,0,0)),h=h.append(s);break;case&quot;rotate&quot;:if(3===l.length&amp;&amp;(e=new g(1,0,0,1,l[1],l[2]),h=h.append(e)),l[0]){r=l[0]*Math.PI/180;let t=Math.cos(r),e=Math.sin(r);Math.abs(t)&lt;1e-16&amp;&amp;(t=0),Math.abs(e)&lt;1e-16&amp;&amp;(e=0),a=new g(t,e,-e,t,0,0),h=h.append(a)}else console.error(&quot;math.js: No argument to rotate transform!&quot;);3===l.length&amp;&amp;(e=new g(1,0,0,1,-l[1],-l[2]),h=h.append(e));break;case&quot;skewX&quot;:l[0]?(r=l[0]*Math.PI/180,n=Math.tan(r),o=new g(1,0,n,1,0,0),h=h.append(o)):console.error(&quot;math.js: No argument to skewX transform!&quot;);break;case&quot;skewY&quot;:l[0]?(r=l[0]*Math.PI/180,n=Math.tan(r),i=new g(1,n,0,1,0,0),h=h.append(i)):console.error(&quot;math.js: No argument to skewY transform!&quot;);break;case&quot;matrix&quot;:6===l.length?h=h.append(new g(...l)):console.error(&quot;math.js: Incorrect number of arguments for matrix!&quot;);break;default:console.error(&quot;mesh.js: Unhandled transform type: &quot;+d)}}),h},l=t=&gt;{let e=[],s=t.split(/[ ,]+/);for(let t=0,r=s.length-1;t&lt;r;t+=2)e.push(new x(parseFloat(s[t]),parseFloat(s[t+1])));return e},d=(t,e)=&gt;{for(let s in e)t.setAttribute(s,e[s])},c=(t,e,s,r,n)=&gt;{let o,i,a=[0,0,0,0];for(let h=0;h&lt;3;++h)e[h]&lt;t[h]&amp;&amp;e[h]&lt;s[h]||t[h]&lt;e[h]&amp;&amp;s[h]&lt;e[h]?a[h]=0:(a[h]=.5*((e[h]-t[h])/r+(s[h]-e[h])/n),o=Math.abs(3*(e[h]-t[h])/r),i=Math.abs(3*(s[h]-e[h])/n),a[h]&gt;o?a[h]=o:a[h]&gt;i&amp;&amp;(a[h]=i));return a},u=[[1,0,0,0,0,0,0,0,0,0,0,0,0,0,0,0],[0,0,0,0,1,0,0,0,0,0,0,0,0,0,0,0],[-3,3,0,0,-2,-1,0,0,0,0,0,0,0,0,0,0],[2,-2,0,0,1,1,0,0,0,0,0,0,0,0,0,0],[0,0,0,0,0,0,0,0,1,0,0,0,0,0,0,0],[0,0,0,0,0,0,0,0,0,0,0,0,1,0,0,0],[0,0,0,0,0,0,0,0,-3,3,0,0,-2,-1,0,0],[0,0,0,0,0,0,0,0,2,-2,0,0,1,1,0,0],[-3,0,3,0,0,0,0,0,-2,0,-1,0,0,0,0,0],[0,0,0,0,-3,0,3,0,0,0,0,0,-2,0,-1,0],[9,-9,-9,9,6,3,-6,-3,6,-6,3,-3,4,2,2,1],[-6,6,6,-6,-3,-3,3,3,-4,4,-2,2,-2,-2,-1,-1],[2,0,-2,0,0,0,0,0,1,0,1,0,0,0,0,0],[0,0,0,0,2,0,-2,0,0,0,0,0,1,0,1,0],[-6,6,6,-6,-4,-2,4,2,-3,3,-3,3,-2,-1,-2,-1],[4,-4,-4,4,2,2,-2,-2,2,-2,2,-2,1,1,1,1]],f=t=&gt;{let e=[];for(let s=0;s&lt;16;++s){e[s]=0;for(let r=0;r&lt;16;++r)e[s]+=u[s][r]*t[r]}return e},p=(t,e,s)=&gt;{const r=e*e,n=s*s,o=e*e*e,i=s*s*s;return t[0]+t[1]*e+t[2]*r+t[3]*o+t[4]*s+t[5]*s*e+t[6]*s*r+t[7]*s*o+t[8]*n+t[9]*n*e+t[10]*n*r+t[11]*n*o+t[12]*i+t[13]*i*e+t[14]*i*r+t[15]*i*o},y=t=&gt;{let e=[],s=[],r=[];for(let s=0;s&lt;4;++s)e[s]=[],e[s][0]=n(t[0][s],t[1][s],t[2][s],t[3][s]),e[s][1]=[],e[s][1].push(...n(...e[s][0][0])),e[s][1].push(...n(...e[s][0][1])),e[s][2]=[],e[s][2].push(...n(...e[s][1][0])),e[s][2].push(...n(...e[s][1][1])),e[s][2].push(...n(...e[s][1][2])),e[s][2].push(...n(...e[s][1][3]));for(let t=0;t&lt;8;++t){s[t]=[];for(let r=0;r&lt;4;++r)s[t][r]=[],s[t][r][0]=n(e[0][2][t][r],e[1][2][t][r],e[2][2][t][r],e[3][2][t][r]),s[t][r][1]=[],s[t][r][1].push(...n(...s[t][r][0][0])),s[t][r][1].push(...n(...s[t][r][0][1])),s[t][r][2]=[],s[t][r][2].push(...n(...s[t][r][1][0])),s[t][r][2].push(...n(...s[t][r][1][1])),s[t][r][2].push(...n(...s[t][r][1][2])),s[t][r][2].push(...n(...s[t][r][1][3]))}for(let t=0;t&lt;8;++t){r[t]=[];for(let e=0;e&lt;8;++e)r[t][e]=[],r[t][e][0]=s[t][0][2][e],r[t][e][1]=s[t][1][2][e],r[t][e][2]=s[t][2][2][e],r[t][e][3]=s[t][3][2][e]}return r};class x{constructor(t,e){this.x=t||0,this.y=e||0}toString(){return`(x=${this.x}, y=${this.y})`}clone(){return new x(this.x,this.y)}add(t){return new x(this.x+t.x,this.y+t.y)}scale(t){return void 0===t.x?new x(this.x*t,this.y*t):new x(this.x*t.x,this.y*t.y)}distSquared(t){let e=this.x-t.x,s=this.y-t.y;return e*e+s*s}transform(t){let e=this.x*t.a+this.y*t.c+t.e,s=this.x*t.b+this.y*t.d+t.f;return new x(e,s)}}class g{constructor(t,e,s,r,n,o){void 0===t?(this.a=1,this.b=0,this.c=0,this.d=1,this.e=0,this.f=0):(this.a=t,this.b=e,this.c=s,this.d=r,this.e=n,this.f=o)}toString(){return`affine: ${this.a} ${this.c} ${this.e} \n       ${this.b} ${this.d} ${this.f}`}append(t){t instanceof g||console.error(&quot;mesh.js: argument to Affine.append is not affine!&quot;);let e=this.a*t.a+this.c*t.b,s=this.b*t.a+this.d*t.b,r=this.a*t.c+this.c*t.d,n=this.b*t.c+this.d*t.d,o=this.a*t.e+this.c*t.f+this.e,i=this.b*t.e+this.d*t.f+this.f;return new g(e,s,r,n,o,i)}}class w{constructor(t,e){this.nodes=t,this.colors=e}paintCurve(t,e){if(o(this.nodes)&gt;r){const s=n(...this.nodes);let r=[[],[]],o=[[],[]];for(let t=0;t&lt;4;++t)r[0][t]=this.colors[0][t],r[1][t]=(this.colors[0][t]+this.colors[1][t])/2,o[0][t]=r[1][t],o[1][t]=this.colors[1][t];let i=new w(s[0],r),a=new w(s[1],o);i.paintCurve(t,e),a.paintCurve(t,e)}else{let s=Math.round(this.nodes[0].x);if(s&gt;=0&amp;&amp;s&lt;e){let r=4*(~~this.nodes[0].y*e+s);t[r]=Math.round(this.colors[0][0]),t[r+1]=Math.round(this.colors[0][1]),t[r+2]=Math.round(this.colors[0][2]),t[r+3]=Math.round(this.colors[0][3])}}}}class m{constructor(t,e){this.nodes=t,this.colors=e}split(){let t=[[],[],[],[]],e=[[],[],[],[]],s=[[[],[]],[[],[]]],r=[[[],[]],[[],[]]];for(let s=0;s&lt;4;++s){const r=n(this.nodes[0][s],this.nodes[1][s],this.nodes[2][s],this.nodes[3][s]);t[0][s]=r[0][0],t[1][s]=r[0][1],t[2][s]=r[0][2],t[3][s]=r[0][3],e[0][s]=r[1][0],e[1][s]=r[1][1],e[2][s]=r[1][2],e[3][s]=r[1][3]}for(let t=0;t&lt;4;++t)s[0][0][t]=this.colors[0][0][t],s[0][1][t]=this.colors[0][1][t],s[1][0][t]=(this.colors[0][0][t]+this.colors[1][0][t])/2,s[1][1][t]=(this.colors[0][1][t]+this.colors[1][1][t])/2,r[0][0][t]=s[1][0][t],r[0][1][t]=s[1][1][t],r[1][0][t]=this.colors[1][0][t],r[1][1][t]=this.colors[1][1][t];return[new m(t,s),new m(e,r)]}paint(t,e){let s,n=!1;for(let t=0;t&lt;4;++t)if((s=o([this.nodes[0][t],this.nodes[1][t],this.nodes[2][t],this.nodes[3][t]]))&gt;r){n=!0;break}if(n){let s=this.split();s[0].paint(t,e),s[1].paint(t,e)}else{new w([...this.nodes[0]],[...this.colors[0]]).paintCurve(t,e)}}}class b{constructor(t){this.readMesh(t),this.type=t.getAttribute(&quot;type&quot;)||&quot;bilinear&quot;}readMesh(t){let e=[[]],s=[[]],r=Number(t.getAttribute(&quot;x&quot;)),n=Number(t.getAttribute(&quot;y&quot;));e[0][0]=new x(r,n);let o=t.children;for(let t=0,r=o.length;t&lt;r;++t){e[3*t+1]=[],e[3*t+2]=[],e[3*t+3]=[],s[t+1]=[];let r=o[t].children;for(let n=0,o=r.length;n&lt;o;++n){let o=r[n].children;for(let r=0,i=o.length;r&lt;i;++r){let i=r;0!==t&amp;&amp;++i;let h,d=o[r].getAttribute(&quot;path&quot;),c=&quot;l&quot;;null!=d&amp;&amp;(c=(h=d.match(/\s*([lLcC])\s*(.*)/))[1]);let u=l(h[2]);switch(c){case&quot;l&quot;:0===i?(e[3*t][3*n+3]=u[0].add(e[3*t][3*n]),e[3*t][3*n+1]=a(e[3*t][3*n],e[3*t][3*n+3]),e[3*t][3*n+2]=a(e[3*t][3*n+3],e[3*t][3*n])):1===i?(e[3*t+3][3*n+3]=u[0].add(e[3*t][3*n+3]),e[3*t+1][3*n+3]=a(e[3*t][3*n+3],e[3*t+3][3*n+3]),e[3*t+2][3*n+3]=a(e[3*t+3][3*n+3],e[3*t][3*n+3])):2===i?(0===n&amp;&amp;(e[3*t+3][3*n+0]=u[0].add(e[3*t+3][3*n+3])),e[3*t+3][3*n+1]=a(e[3*t+3][3*n],e[3*t+3][3*n+3]),e[3*t+3][3*n+2]=a(e[3*t+3][3*n+3],e[3*t+3][3*n])):(e[3*t+1][3*n]=a(e[3*t][3*n],e[3*t+3][3*n]),e[3*t+2][3*n]=a(e[3*t+3][3*n],e[3*t][3*n]));break;case&quot;L&quot;:0===i?(e[3*t][3*n+3]=u[0],e[3*t][3*n+1]=a(e[3*t][3*n],e[3*t][3*n+3]),e[3*t][3*n+2]=a(e[3*t][3*n+3],e[3*t][3*n])):1===i?(e[3*t+3][3*n+3]=u[0],e[3*t+1][3*n+3]=a(e[3*t][3*n+3],e[3*t+3][3*n+3]),e[3*t+2][3*n+3]=a(e[3*t+3][3*n+3],e[3*t][3*n+3])):2===i?(0===n&amp;&amp;(e[3*t+3][3*n+0]=u[0]),e[3*t+3][3*n+1]=a(e[3*t+3][3*n],e[3*t+3][3*n+3]),e[3*t+3][3*n+2]=a(e[3*t+3][3*n+3],e[3*t+3][3*n])):(e[3*t+1][3*n]=a(e[3*t][3*n],e[3*t+3][3*n]),e[3*t+2][3*n]=a(e[3*t+3][3*n],e[3*t][3*n]));break;case&quot;c&quot;:0===i?(e[3*t][3*n+1]=u[0].add(e[3*t][3*n]),e[3*t][3*n+2]=u[1].add(e[3*t][3*n]),e[3*t][3*n+3]=u[2].add(e[3*t][3*n])):1===i?(e[3*t+1][3*n+3]=u[0].add(e[3*t][3*n+3]),e[3*t+2][3*n+3]=u[1].add(e[3*t][3*n+3]),e[3*t+3][3*n+3]=u[2].add(e[3*t][3*n+3])):2===i?(e[3*t+3][3*n+2]=u[0].add(e[3*t+3][3*n+3]),e[3*t+3][3*n+1]=u[1].add(e[3*t+3][3*n+3]),0===n&amp;&amp;(e[3*t+3][3*n+0]=u[2].add(e[3*t+3][3*n+3]))):(e[3*t+2][3*n]=u[0].add(e[3*t+3][3*n]),e[3*t+1][3*n]=u[1].add(e[3*t+3][3*n]));break;case&quot;C&quot;:0===i?(e[3*t][3*n+1]=u[0],e[3*t][3*n+2]=u[1],e[3*t][3*n+3]=u[2]):1===i?(e[3*t+1][3*n+3]=u[0],e[3*t+2][3*n+3]=u[1],e[3*t+3][3*n+3]=u[2]):2===i?(e[3*t+3][3*n+2]=u[0],e[3*t+3][3*n+1]=u[1],0===n&amp;&amp;(e[3*t+3][3*n+0]=u[2])):(e[3*t+2][3*n]=u[0],e[3*t+1][3*n]=u[1]);break;default:console.error(&quot;mesh.js: &quot;+c+&quot; invalid path type.&quot;)}if(0===t&amp;&amp;0===n||r&gt;0){let e=window.getComputedStyle(o[r]).stopColor.match(/^rgb\s*\(\s*(\d+)\s*,\s*(\d+)\s*,\s*(\d+)\s*\)$/i),a=window.getComputedStyle(o[r]).stopOpacity,h=255;a&amp;&amp;(h=Math.floor(255*a)),e&amp;&amp;(0===i?(s[t][n]=[],s[t][n][0]=Math.floor(e[1]),s[t][n][1]=Math.floor(e[2]),s[t][n][2]=Math.floor(e[3]),s[t][n][3]=h):1===i?(s[t][n+1]=[],s[t][n+1][0]=Math.floor(e[1]),s[t][n+1][1]=Math.floor(e[2]),s[t][n+1][2]=Math.floor(e[3]),s[t][n+1][3]=h):2===i?(s[t+1][n+1]=[],s[t+1][n+1][0]=Math.floor(e[1]),s[t+1][n+1][1]=Math.floor(e[2]),s[t+1][n+1][2]=Math.floor(e[3]),s[t+1][n+1][3]=h):3===i&amp;&amp;(s[t+1][n]=[],s[t+1][n][0]=Math.floor(e[1]),s[t+1][n][1]=Math.floor(e[2]),s[t+1][n][2]=Math.floor(e[3]),s[t+1][n][3]=h))}}e[3*t+1][3*n+1]=new x,e[3*t+1][3*n+2]=new x,e[3*t+2][3*n+1]=new x,e[3*t+2][3*n+2]=new x,e[3*t+1][3*n+1].x=(-4*e[3*t][3*n].x+6*(e[3*t][3*n+1].x+e[3*t+1][3*n].x)+-2*(e[3*t][3*n+3].x+e[3*t+3][3*n].x)+3*(e[3*t+3][3*n+1].x+e[3*t+1][3*n+3].x)+-1*e[3*t+3][3*n+3].x)/9,e[3*t+1][3*n+2].x=(-4*e[3*t][3*n+3].x+6*(e[3*t][3*n+2].x+e[3*t+1][3*n+3].x)+-2*(e[3*t][3*n].x+e[3*t+3][3*n+3].x)+3*(e[3*t+3][3*n+2].x+e[3*t+1][3*n].x)+-1*e[3*t+3][3*n].x)/9,e[3*t+2][3*n+1].x=(-4*e[3*t+3][3*n].x+6*(e[3*t+3][3*n+1].x+e[3*t+2][3*n].x)+-2*(e[3*t+3][3*n+3].x+e[3*t][3*n].x)+3*(e[3*t][3*n+1].x+e[3*t+2][3*n+3].x)+-1*e[3*t][3*n+3].x)/9,e[3*t+2][3*n+2].x=(-4*e[3*t+3][3*n+3].x+6*(e[3*t+3][3*n+2].x+e[3*t+2][3*n+3].x)+-2*(e[3*t+3][3*n].x+e[3*t][3*n+3].x)+3*(e[3*t][3*n+2].x+e[3*t+2][3*n].x)+-1*e[3*t][3*n].x)/9,e[3*t+1][3*n+1].y=(-4*e[3*t][3*n].y+6*(e[3*t][3*n+1].y+e[3*t+1][3*n].y)+-2*(e[3*t][3*n+3].y+e[3*t+3][3*n].y)+3*(e[3*t+3][3*n+1].y+e[3*t+1][3*n+3].y)+-1*e[3*t+3][3*n+3].y)/9,e[3*t+1][3*n+2].y=(-4*e[3*t][3*n+3].y+6*(e[3*t][3*n+2].y+e[3*t+1][3*n+3].y)+-2*(e[3*t][3*n].y+e[3*t+3][3*n+3].y)+3*(e[3*t+3][3*n+2].y+e[3*t+1][3*n].y)+-1*e[3*t+3][3*n].y)/9,e[3*t+2][3*n+1].y=(-4*e[3*t+3][3*n].y+6*(e[3*t+3][3*n+1].y+e[3*t+2][3*n].y)+-2*(e[3*t+3][3*n+3].y+e[3*t][3*n].y)+3*(e[3*t][3*n+1].y+e[3*t+2][3*n+3].y)+-1*e[3*t][3*n+3].y)/9,e[3*t+2][3*n+2].y=(-4*e[3*t+3][3*n+3].y+6*(e[3*t+3][3*n+2].y+e[3*t+2][3*n+3].y)+-2*(e[3*t+3][3*n].y+e[3*t][3*n+3].y)+3*(e[3*t][3*n+2].y+e[3*t+2][3*n].y)+-1*e[3*t][3*n].y)/9}}this.nodes=e,this.colors=s}paintMesh(t,e){let s=(this.nodes.length-1)/3,r=(this.nodes[0].length-1)/3;if(&quot;bilinear&quot;===this.type||s&lt;2||r&lt;2){let n;for(let o=0;o&lt;s;++o)for(let s=0;s&lt;r;++s){let r=[];for(let t=3*o,e=3*o+4;t&lt;e;++t)r.push(this.nodes[t].slice(3*s,3*s+4));let i=[];i.push(this.colors[o].slice(s,s+2)),i.push(this.colors[o+1].slice(s,s+2)),(n=new m(r,i)).paint(t,e)}}else{let n,o,a,h,l,d,u;const x=s,g=r;s++,r++;let w=new Array(s);for(let t=0;t&lt;s;++t){w[t]=new Array(r);for(let e=0;e&lt;r;++e)w[t][e]=[],w[t][e][0]=this.nodes[3*t][3*e],w[t][e][1]=this.colors[t][e]}for(let t=0;t&lt;s;++t)for(let e=0;e&lt;r;++e)0!==t&amp;&amp;t!==x&amp;&amp;(n=i(w[t-1][e][0],w[t][e][0]),o=i(w[t+1][e][0],w[t][e][0]),w[t][e][2]=c(w[t-1][e][1],w[t][e][1],w[t+1][e][1],n,o)),0!==e&amp;&amp;e!==g&amp;&amp;(n=i(w[t][e-1][0],w[t][e][0]),o=i(w[t][e+1][0],w[t][e][0]),w[t][e][3]=c(w[t][e-1][1],w[t][e][1],w[t][e+1][1],n,o));for(let t=0;t&lt;r;++t){w[0][t][2]=[],w[x][t][2]=[];for(let e=0;e&lt;4;++e)n=i(w[1][t][0],w[0][t][0]),o=i(w[x][t][0],w[x-1][t][0]),w[0][t][2][e]=n&gt;0?2*(w[1][t][1][e]-w[0][t][1][e])/n-w[1][t][2][e]:0,w[x][t][2][e]=o&gt;0?2*(w[x][t][1][e]-w[x-1][t][1][e])/o-w[x-1][t][2][e]:0}for(let t=0;t&lt;s;++t){w[t][0][3]=[],w[t][g][3]=[];for(let e=0;e&lt;4;++e)n=i(w[t][1][0],w[t][0][0]),o=i(w[t][g][0],w[t][g-1][0]),w[t][0][3][e]=n&gt;0?2*(w[t][1][1][e]-w[t][0][1][e])/n-w[t][1][3][e]:0,w[t][g][3][e]=o&gt;0?2*(w[t][g][1][e]-w[t][g-1][1][e])/o-w[t][g-1][3][e]:0}for(let s=0;s&lt;x;++s)for(let r=0;r&lt;g;++r){let n=i(w[s][r][0],w[s+1][r][0]),o=i(w[s][r+1][0],w[s+1][r+1][0]),c=i(w[s][r][0],w[s][r+1][0]),x=i(w[s+1][r][0],w[s+1][r+1][0]),g=[[],[],[],[]];for(let t=0;t&lt;4;++t){(d=[])[0]=w[s][r][1][t],d[1]=w[s+1][r][1][t],d[2]=w[s][r+1][1][t],d[3]=w[s+1][r+1][1][t],d[4]=w[s][r][2][t]*n,d[5]=w[s+1][r][2][t]*n,d[6]=w[s][r+1][2][t]*o,d[7]=w[s+1][r+1][2][t]*o,d[8]=w[s][r][3][t]*c,d[9]=w[s+1][r][3][t]*x,d[10]=w[s][r+1][3][t]*c,d[11]=w[s+1][r+1][3][t]*x,d[12]=0,d[13]=0,d[14]=0,d[15]=0,u=f(d);for(let e=0;e&lt;9;++e){g[t][e]=[];for(let s=0;s&lt;9;++s)g[t][e][s]=p(u,e/8,s/8),g[t][e][s]&gt;255?g[t][e][s]=255:g[t][e][s]&lt;0&amp;&amp;(g[t][e][s]=0)}}h=[];for(let t=3*s,e=3*s+4;t&lt;e;++t)h.push(this.nodes[t].slice(3*r,3*r+4));l=y(h);for(let s=0;s&lt;8;++s)for(let r=0;r&lt;8;++r)(a=new m(l[s][r],[[[g[0][s][r],g[1][s][r],g[2][s][r],g[3][s][r]],[g[0][s][r+1],g[1][s][r+1],g[2][s][r+1],g[3][s][r+1]]],[[g[0][s+1][r],g[1][s+1][r],g[2][s+1][r],g[3][s+1][r]],[g[0][s+1][r+1],g[1][s+1][r+1],g[2][s+1][r+1],g[3][s+1][r+1]]]])).paint(t,e)}}}transform(t){if(t instanceof x)for(let e=0,s=this.nodes.length;e&lt;s;++e)for(let s=0,r=this.nodes[0].length;s&lt;r;++s)this.nodes[e][s]=this.nodes[e][s].add(t);else if(t instanceof g)for(let e=0,s=this.nodes.length;e&lt;s;++e)for(let s=0,r=this.nodes[0].length;s&lt;r;++s)this.nodes[e][s]=this.nodes[e][s].transform(t)}scale(t){for(let e=0,s=this.nodes.length;e&lt;s;++e)for(let s=0,r=this.nodes[0].length;s&lt;r;++s)this.nodes[e][s]=this.nodes[e][s].scale(t)}}document.querySelectorAll(&quot;rect,circle,ellipse,path,text&quot;).forEach((r,n)=&gt;{let o=r.getAttribute(&quot;id&quot;);o||(o=&quot;patchjs_shape&quot;+n,r.setAttribute(&quot;id&quot;,o));const i=r.style.fill.match(/^url\(\s*&quot;?\s*#([^\s&quot;]+)&quot;?\s*\)/),a=r.style.stroke.match(/^url\(\s*&quot;?\s*#([^\s&quot;]+)&quot;?\s*\)/);if(i&amp;&amp;i[1]){const a=document.getElementById(i[1]);if(a&amp;&amp;&quot;meshgradient&quot;===a.nodeName){const i=r.getBBox();let l=document.createElementNS(s,&quot;canvas&quot;);d(l,{width:i.width,height:i.height});const c=l.getContext(&quot;2d&quot;);let u=c.createImageData(i.width,i.height);const f=new b(a);&quot;objectBoundingBox&quot;===a.getAttribute(&quot;gradientUnits&quot;)&amp;&amp;f.scale(new x(i.width,i.height));const p=a.getAttribute(&quot;gradientTransform&quot;);null!=p&amp;&amp;f.transform(h(p)),&quot;userSpaceOnUse&quot;===a.getAttribute(&quot;gradientUnits&quot;)&amp;&amp;f.transform(new x(-i.x,-i.y)),f.paintMesh(u.data,l.width),c.putImageData(u,0,0);const y=document.createElementNS(t,&quot;image&quot;);d(y,{width:i.width,height:i.height,x:i.x,y:i.y});let g=l.toDataURL();y.setAttributeNS(e,&quot;xlink:href&quot;,g),r.parentNode.insertBefore(y,r),r.style.fill=&quot;none&quot;;const w=document.createElementNS(t,&quot;use&quot;);w.setAttributeNS(e,&quot;xlink:href&quot;,&quot;#&quot;+o);const m=&quot;patchjs_clip&quot;+n,M=document.createElementNS(t,&quot;clipPath&quot;);M.setAttribute(&quot;id&quot;,m),M.appendChild(w),r.parentElement.insertBefore(M,r),y.setAttribute(&quot;clip-path&quot;,&quot;url(#&quot;+m+&quot;)&quot;),u=null,l=null,g=null}}if(a&amp;&amp;a[1]){const o=document.getElementById(a[1]);if(o&amp;&amp;&quot;meshgradient&quot;===o.nodeName){const i=parseFloat(r.style.strokeWidth.slice(0,-2))*(parseFloat(r.style.strokeMiterlimit)||parseFloat(r.getAttribute(&quot;stroke-miterlimit&quot;))||1),a=r.getBBox(),l=Math.trunc(a.width+i),c=Math.trunc(a.height+i),u=Math.trunc(a.x-i/2),f=Math.trunc(a.y-i/2);let p=document.createElementNS(s,&quot;canvas&quot;);d(p,{width:l,height:c});const y=p.getContext(&quot;2d&quot;);let g=y.createImageData(l,c);const w=new b(o);&quot;objectBoundingBox&quot;===o.getAttribute(&quot;gradientUnits&quot;)&amp;&amp;w.scale(new x(l,c));const m=o.getAttribute(&quot;gradientTransform&quot;);null!=m&amp;&amp;w.transform(h(m)),&quot;userSpaceOnUse&quot;===o.getAttribute(&quot;gradientUnits&quot;)&amp;&amp;w.transform(new x(-u,-f)),w.paintMesh(g.data,p.width),y.putImageData(g,0,0);const M=document.createElementNS(t,&quot;image&quot;);d(M,{width:l,height:c,x:0,y:0});let S=p.toDataURL();M.setAttributeNS(e,&quot;xlink:href&quot;,S);const k=&quot;pattern_clip&quot;+n,A=document.createElementNS(t,&quot;pattern&quot;);d(A,{id:k,patternUnits:&quot;userSpaceOnUse&quot;,width:l,height:c,x:u,y:f}),A.appendChild(M),o.parentNode.appendChild(A),r.style.stroke=&quot;url(#&quot;+k+&quot;)&quot;,g=null,p=null,S=null}}})}();
</script>
</svg>
